ModelForces
version=1
nRows=4
nColumns=206
inDegrees=no

This file contains the forces exerted on a model during a simulation.

A force is a generalized force, meaning that it can be either a force (N) or a torque (Nm).

Units are S.I. units (second, meters, Newtons, ...)
Angles are in degrees.

endheader
time	glut_med1_r	glut_med2_r	glut_med3_r	glut_min1_r	glut_min2_r	glut_min3_r	semimem_r	semiten_r	bifemlh_r	bifemsh_r	sar_r	add_long_r	add_brev_r	add_mag1_r	add_mag2_r	add_mag3_r	tfl_r	pect_r	grac_r	glut_max1_r	glut_max2_r	glut_max3_r	iliacus_r	psoas_r	quad_fem_r	gem_r	peri_r	rect_fem_r	vas_med_r	vas_int_r	vas_lat_r	med_gas_r	lat_gas_r	soleus_r	tib_post_r	flex_dig_r	flex_hal_r	tib_ant_r	per_brev_r	per_long_r	per_tert_r	ext_dig_r	ext_hal_r	glut_med1_l	glut_med2_l	glut_med3_l	glut_min1_l	glut_min2_l	glut_min3_l	semimem_l	semiten_l	bifemlh_l	bifemsh_l	sar_l	add_long_l	add_brev_l	add_mag1_l	add_mag2_l	add_mag3_l	tfl_l	pect_l	grac_l	glut_max1_l	glut_max2_l	glut_max3_l	iliacus_l	psoas_l	quad_fem_l	gem_l	peri_l	rect_fem_l	vas_med_l	vas_int_l	vas_lat_l	med_gas_l	lat_gas_l	soleus_l	tib_post_l	flex_dig_l	flex_hal_l	tib_ant_l	per_brev_l	per_long_l	per_tert_l	ext_dig_l	ext_hal_l	ercspn_r	ercspn_l	intobl_r	intobl_l	extobl_r	extobl_l	femur_lat_meniscii_l.femur_lat_l.force.X	femur_lat_meniscii_l.femur_lat_l.force.Y	femur_lat_meniscii_l.femur_lat_l.force.Z	femur_lat_meniscii_l.femur_lat_l.torque.X	femur_lat_meniscii_l.femur_lat_l.torque.Y	femur_lat_meniscii_l.femur_lat_l.torque.Z	femur_lat_meniscii_l.meniscus_lat_l.force.X	femur_lat_meniscii_l.meniscus_lat_l.force.Y	femur_lat_meniscii_l.meniscus_lat_l.force.Z	femur_lat_meniscii_l.meniscus_lat_l.torque.X	femur_lat_meniscii_l.meniscus_lat_l.torque.Y	femur_lat_meniscii_l.meniscus_lat_l.torque.Z	femur_med_meniscii_l.femur_med_l.force.X	femur_med_meniscii_l.femur_med_l.force.Y	femur_med_meniscii_l.femur_med_l.force.Z	femur_med_meniscii_l.femur_med_l.torque.X	femur_med_meniscii_l.femur_med_l.torque.Y	femur_med_meniscii_l.femur_med_l.torque.Z	femur_med_meniscii_l.meniscus_med_l.force.X	femur_med_meniscii_l.meniscus_med_l.force.Y	femur_med_meniscii_l.meniscus_med_l.force.Z	femur_med_meniscii_l.meniscus_med_l.torque.X	femur_med_meniscii_l.meniscus_med_l.torque.Y	femur_med_meniscii_l.meniscus_med_l.torque.Z	femur_lat_meniscii_r.femur_lat_r.force.X	femur_lat_meniscii_r.femur_lat_r.force.Y	femur_lat_meniscii_r.femur_lat_r.force.Z	femur_lat_meniscii_r.femur_lat_r.torque.X	femur_lat_meniscii_r.femur_lat_r.torque.Y	femur_lat_meniscii_r.femur_lat_r.torque.Z	femur_lat_meniscii_r.meniscus_lat_r.force.X	femur_lat_meniscii_r.meniscus_lat_r.force.Y	femur_lat_meniscii_r.meniscus_lat_r.force.Z	femur_lat_meniscii_r.meniscus_lat_r.torque.X	femur_lat_meniscii_r.meniscus_lat_r.torque.Y	femur_lat_meniscii_r.meniscus_lat_r.torque.Z	femur_med_meniscii_r.femur_med_r.force.X	femur_med_meniscii_r.femur_med_r.force.Y	femur_med_meniscii_r.femur_med_r.force.Z	femur_med_meniscii_r.femur_med_r.torque.X	femur_med_meniscii_r.femur_med_r.torque.Y	femur_med_meniscii_r.femur_med_r.torque.Z	femur_med_meniscii_r.meniscus_med_r.force.X	femur_med_meniscii_r.meniscus_med_r.force.Y	femur_med_meniscii_r.meniscus_med_r.force.Z	femur_med_meniscii_r.meniscus_med_r.torque.X	femur_med_meniscii_r.meniscus_med_r.torque.Y	femur_med_meniscii_r.meniscus_med_r.torque.Z	femur_med_tibia_l.tibia_upper_l.force.X	femur_med_tibia_l.tibia_upper_l.force.Y	femur_med_tibia_l.tibia_upper_l.force.Z	femur_med_tibia_l.tibia_upper_l.torque.X	femur_med_tibia_l.tibia_upper_l.torque.Y	femur_med_tibia_l.tibia_upper_l.torque.Z	femur_med_tibia_l.femur_med_l.force.X	femur_med_tibia_l.femur_med_l.force.Y	femur_med_tibia_l.femur_med_l.force.Z	femur_med_tibia_l.femur_med_l.torque.X	femur_med_tibia_l.femur_med_l.torque.Y	femur_med_tibia_l.femur_med_l.torque.Z	femur_lat_tibia_l.tibia_upper_l.force.X	femur_lat_tibia_l.tibia_upper_l.force.Y	femur_lat_tibia_l.tibia_upper_l.force.Z	femur_lat_tibia_l.tibia_upper_l.torque.X	femur_lat_tibia_l.tibia_upper_l.torque.Y	femur_lat_tibia_l.tibia_upper_l.torque.Z	femur_lat_tibia_l.femur_lat_l.force.X	femur_lat_tibia_l.femur_lat_l.force.Y	femur_lat_tibia_l.femur_lat_l.force.Z	femur_lat_tibia_l.femur_lat_l.torque.X	femur_lat_tibia_l.femur_lat_l.torque.Y	femur_lat_tibia_l.femur_lat_l.torque.Z	femur_med_tibia_r.tibia_upper_r.force.X	femur_med_tibia_r.tibia_upper_r.force.Y	femur_med_tibia_r.tibia_upper_r.force.Z	femur_med_tibia_r.tibia_upper_r.torque.X	femur_med_tibia_r.tibia_upper_r.torque.Y	femur_med_tibia_r.tibia_upper_r.torque.Z	femur_med_tibia_r.femur_med_r.force.X	femur_med_tibia_r.femur_med_r.force.Y	femur_med_tibia_r.femur_med_r.force.Z	femur_med_tibia_r.femur_med_r.torque.X	femur_med_tibia_r.femur_med_r.torque.Y	femur_med_tibia_r.femur_med_r.torque.Z	femur_lat_tibia_r.tibia_upper_r.force.X	femur_lat_tibia_r.tibia_upper_r.force.Y	femur_lat_tibia_r.tibia_upper_r.force.Z	femur_lat_tibia_r.tibia_upper_r.torque.X	femur_lat_tibia_r.tibia_upper_r.torque.Y	femur_lat_tibia_r.tibia_upper_r.torque.Z	femur_lat_tibia_r.femur_lat_r.force.X	femur_lat_tibia_r.femur_lat_r.force.Y	femur_lat_tibia_r.femur_lat_r.force.Z	femur_lat_tibia_r.femur_lat_r.torque.X	femur_lat_tibia_r.femur_lat_r.torque.Y	femur_lat_tibia_r.femur_lat_r.torque.Z	aACL_R	pACL_R	aPCL_R	pPCL_R	aMCL_R	mMCL_R	pMCL_R	aLCL_R	mLCL_R	pLCL_R	aPCL_L	pPCL_L	aMCL_L	aLCL_L	ground_prescribedForce_-40_fx	ground_prescribedForce_-40_fy	ground_prescribedForce_-40_fz
      0.71910650	      7.54852446	      5.66614853	      6.06514445	      2.65911265	      3.17913774	      3.19298398	      4.11373757	      4.11571503	      6.15359635	      6.73239630	      1.55036263	      5.61367728	      4.14133427	      2.91912594	      2.45389662	      3.98776103	      4.68753983	      2.23886373	      1.55879480	      3.65632894	      5.55639212	      4.14771185	     22.64832107	     12.96766284	      3.62692086	      2.85443263	      4.09060342	     24.10483005	     13.17550401	     13.85889392	     18.82571389	      0.00000000	      1.14624756	     11.16247888	     14.28084715	      2.73560485	      3.43110715	     13.25019523	      3.97534468	      8.26113663	     10.93234475	      9.11294405	      1.60176798	      7.54852446	      5.66614853	      6.06514445	      2.65911265	      3.17913774	      3.19298398	      8.74608824	      4.08354191	      7.68359759	      7.21651173	      1.51984382	      5.61367728	      4.14133427	      2.91912594	      2.45389662	      3.98776103	      4.09720917	      2.23886373	      1.55880723	      3.65632894	      5.55639212	      4.14771185	     22.64832107	     12.96766284	      3.62692086	      2.85443263	      4.09060342	     10.66818001	      6.59315372	      7.56288509	      8.13214193	     13.95615204	      6.48016568	     31.09126727	     42.36112952	      2.60336775	      2.84944278	      8.45255789	      4.33450566	     12.44793628	      2.00601013	      5.35299527	      1.69954074	     25.00825739	     25.00825739	      9.00080430	      9.00080430	     26.80533155	     26.80533155	      2.76307435	     50.99597937	     -9.56042239	      5.21997485	     -0.02578839	      1.48581788	     -2.76307435	    -50.99597937	      9.56042239	     -1.74637766	      0.02558040	     -0.48301696	     -3.31599387	     20.97615968	     -3.40468921	      0.94473225	     -0.02138609	     -1.00501789	      3.31599387	    -20.97615968	      3.40468921	      0.28075727	      0.00368718	     -0.29758878	    125.10165137	    126.01161997	     43.20972985	    -20.90755511	      3.07588340	     51.51162846	   -125.10165137	   -126.01161997	    -43.20972985	      4.68557376	     -4.32296725	     -0.90858793	    399.56829959	    187.92544385	    -48.98265917	     23.36894287	     -7.15234160	    163.19985720	   -399.56829959	   -187.92544385	     48.98265917	     -3.49649506	      6.13849900	     -4.98318443	      0.00000000	      0.00000000	      0.00000000	      0.00000000	      0.00000000	      0.00000000	      0.00000000	      0.00000000	      0.00000000	      0.00000000	      0.00000000	      0.00000000	      0.00000000	      0.00000000	      0.00000000	      0.00000000	      0.00000000	      0.00000000	      0.00000000	      0.00000000	      0.00000000	      0.00000000	      0.00000000	      0.00000000	      0.00000000	      0.00000000	      0.00000000	      0.00000000	      0.00000000	      0.00000000	      0.00000000	      0.00000000	      0.00000000	      0.00000000	      0.00000000	      0.00000000	      0.00000000	      0.00000000	      0.00000000	      0.00000000	      0.00000000	      0.00000000	      0.00000000	      0.00000000	      0.00000000	      0.00000000	      0.00000000	      0.00000000	     25.94300051	      8.14037583	    282.87648192	    194.26731886	     12.42294558	     14.73948738	      8.96200993	      1.87774538	      0.00000000	      0.00000000	      0.00000000	      0.00000000	      0.00000001	      0.00000000	     84.26488000	    -70.70660000	      0.00000000
      0.72103057	      7.54845096	      5.66609789	      6.06508957	      2.65908988	      3.17911313	      3.19295296	      4.10005852	      4.10588732	      6.14027200	      6.71265647	      1.54350448	      5.61362651	      4.14129915	      2.91910004	      2.45387433	      3.98772089	      4.68529167	      2.23884445	      1.55398346	      3.65629628	      5.55634234	      4.14767401	     22.64822925	     12.96755962	      3.62688914	      2.85441779	      4.09054374	     24.08241610	     13.10757401	     13.79240058	     18.73947890	      0.00000000	      1.14617843	     11.17073495	     14.27916263	      2.72607215	      3.41644138	     13.26294437	      3.96849746	      8.25953210	     10.92492699	      9.12654368	      1.61277325	      7.54845096	      5.66609789	      6.06508957	      2.65908988	      3.17911313	      3.19295296	      8.74598103	      4.08350254	      7.68350846	      7.21644858	      1.51983087	      5.61362651	      4.14129915	      2.91910004	      2.45387433	      3.98772089	      4.09718435	      2.23884445	      1.55879372	      3.65629628	      5.55634234	      4.14767401	     22.64822925	     12.96755962	      3.62688914	      2.85441779	      4.09054374	     10.66805873	      6.59309345	      7.56281462	      8.13206654	     13.95587089	      6.48003488	     31.09081504	     42.36095321	      2.60186946	      2.84872942	      8.45246666	      4.33445086	     12.44780086	      2.00599412	      5.35369604	      1.69973430	     25.00804284	     25.00804284	      9.00072020	      9.00072020	     26.80525601	     26.80525601	      2.76307435	     50.99597937	     -9.56042239	      5.21997485	     -0.02578839	      1.48581788	     -2.76307435	    -50.99597937	      9.56042239	     -1.74637766	      0.02558040	     -0.48301696	     -3.31599387	     20.97615968	     -3.40468921	      0.94473225	     -0.02138609	     -1.00501789	      3.31599387	    -20.97615968	      3.40468921	      0.28075727	      0.00368718	     -0.29758878	    125.52001852	    125.79444393	     42.19904306	    -20.47908085	      3.07686204	     51.68932411	   -125.52001852	   -125.79444393	    -42.19904306	      4.64861636	     -4.31002452	     -0.92596483	    399.20049515	    187.15026300	    -51.57296285	     24.42731365	     -7.17342560	    163.05718026	   -399.20049515	   -187.15026300	     51.57296285	     -3.55155434	      6.20225863	     -4.99258882	      0.00000000	      0.00000000	      0.00000000	      0.00000000	      0.00000000	      0.00000000	      0.00000000	      0.00000000	      0.00000000	      0.00000000	      0.00000000	      0.00000000	      0.00000000	      0.00000000	      0.00000000	      0.00000000	      0.00000000	      0.00000000	      0.00000000	      0.00000000	      0.00000000	      0.00000000	      0.00000000	      0.00000000	      0.00000000	      0.00000000	      0.00000000	      0.00000000	      0.00000000	      0.00000000	      0.00000000	      0.00000000	      0.00000000	      0.00000000	      0.00000000	      0.00000000	      0.00000000	      0.00000000	      0.00000000	      0.00000000	      0.00000000	      0.00000000	      0.00000000	      0.00000000	      0.00000000	      0.00000000	      0.00000000	      0.00000000	     26.37650600	      8.55219108	    282.78755864	    194.21823041	     12.69741246	     15.01623588	      9.21210507	      1.89497826	      0.00000000	      0.00000000	      0.00000000	      0.00000000	      0.00000001	      0.00000000	     84.26488000	    -70.70660000	      0.00000000
      0.72295464	      7.54837926	      5.66604848	      6.06503603	      2.65906768	      3.17908911	      3.19292269	      4.09045575	      4.09836929	      6.12663592	      6.70009067	      1.54249825	      5.61357699	      4.14126488	      2.91907478	      2.45385258	      3.98768173	      4.68423474	      2.23882564	      1.55185177	      3.65626443	      5.55629379	      4.14763710	     22.64813968	     12.96745893	      3.62685819	      2.85440332	      4.09048551	     24.06517791	     13.06230807	     13.74638531	     18.67652937	      0.00000000	      1.14655529	     11.18042400	     14.27774192	      2.71781364	      3.40136058	     13.27268285	      3.96362982	      8.25921953	     10.92289684	      9.13569921	      1.62376117	      7.54837926	      5.66604848	      6.06503603	      2.65906768	      3.17908911	      3.19292269	      8.74587644	      4.08346412	      7.68342151	      7.21638697	      1.51981824	      5.61357699	      4.14126488	      2.91907478	      2.45385258	      3.98768173	      4.09716014	      2.23882564	      1.55878054	      3.65626443	      5.55629379	      4.14763710	     22.64813968	     12.96745893	      3.62685819	      2.85440332	      4.09048551	     10.66794041	      6.59303465	      7.56274587	      8.13199300	     13.95559654	      6.47990725	     31.09037386	     42.36078121	      2.60036651	      2.84801563	      8.45237766	      4.33439740	     12.44766873	      2.00597849	      5.35440023	      1.69992859	     25.00783354	     25.00783354	      9.00063817	      9.00063817	     26.80518232	     26.80518232	      2.76307435	     50.99597937	     -9.56042239	      5.21997485	     -0.02578839	      1.48581788	     -2.76307435	    -50.99597937	      9.56042239	     -1.74637766	      0.02558040	     -0.48301696	     -3.31599387	     20.97615968	     -3.40468921	      0.94473225	     -0.02138609	     -1.00501789	      3.31599387	    -20.97615968	      3.40468921	      0.28075727	      0.00368718	     -0.29758878	    125.72503743	    125.52070606	     42.08398360	    -20.42486878	      3.07987835	     51.77808040	   -125.72503743	   -125.52070606	    -42.08398360	      4.63788501	     -4.31254877	     -0.93819779	    398.04013014	    188.47881610	    -50.93307713	     24.18498557	     -7.14893586	    162.56588199	   -398.04013014	   -188.47881610	     50.93307713	     -3.55116920	      6.17216974	     -4.92790514	      0.00000000	      0.00000000	      0.00000000	      0.00000000	      0.00000000	      0.00000000	      0.00000000	      0.00000000	      0.00000000	      0.00000000	      0.00000000	      0.00000000	      0.00000000	      0.00000000	      0.00000000	      0.00000000	      0.00000000	      0.00000000	      0.00000000	      0.00000000	      0.00000000	      0.00000000	      0.00000000	      0.00000000	      0.00000000	      0.00000000	      0.00000000	      0.00000000	      0.00000000	      0.00000000	      0.00000000	      0.00000000	      0.00000000	      0.00000000	      0.00000000	      0.00000000	      0.00000000	      0.00000000	      0.00000000	      0.00000000	      0.00000000	      0.00000000	      0.00000000	      0.00000000	      0.00000000	      0.00000000	      0.00000000	      0.00000000	     26.57293141	      8.68393756	    282.67815581	    194.13994344	     12.71355624	     15.03622399	      9.21841412	      1.86011684	      0.00000000	      0.00000000	      0.00000000	      0.00000000	      0.00000001	      0.00000000	     84.26488000	    -70.70660000	      0.00000000
      0.72645235	      7.54825338	      5.66596174	      6.06494202	      2.65902870	      3.17904695	      3.19286956	      4.07914820	      4.08857135	      6.10781647	      6.68954432	      1.53933291	      5.61349005	      4.14120472	      2.91903042	      2.45381441	      3.98761299	      4.68185781	      2.23879261	      1.54965620	      3.65620850	      5.55620854	      4.14757230	     22.64798242	     12.96728215	      3.62680387	      2.85437791	      4.09038328	     24.04586815	     13.00665076	     13.68732808	     18.59393368	      0.00000000	      1.14531027	     11.18513148	     14.28109792	      2.70701039	      3.37369651	     13.29576516	      3.95320841	      8.25533390	     10.91920863	      9.14180871	      1.64514535	      7.54825338	      5.66596174	      6.06494202	      2.65902870	      3.17904695	      3.19286956	      8.74569281	      4.08339668	      7.68326885	      7.21627882	      1.51979606	      5.61349005	      4.14120472	      2.91903042	      2.45381441	      3.98761299	      4.09711764	      2.23879261	      1.55875740	      3.65620850	      5.55620854	      4.14757230	     22.64798242	     12.96728215	      3.62680387	      2.85437791	      4.09038328	     10.66773269	      6.59293143	      7.56262517	      8.13186388	     13.95511473	      6.47968309	     31.08959930	     42.36047925	      2.59762226	      2.84671687	      8.45222141	      4.33430353	     12.44743675	      2.00595107	      5.35568898	      1.70028364	     25.00746610	     25.00746610	      9.00049414	      9.00049414	     26.80505295	     26.80505295	      2.76307435	     50.99597937	     -9.56042239	      5.21997485	     -0.02578839	      1.48581788	     -2.76307435	    -50.99597937	      9.56042239	     -1.74637766	      0.02558040	     -0.48301696	     -3.31599387	     20.97615968	     -3.40468921	      0.94473225	     -0.02138609	     -1.00501789	      3.31599387	    -20.97615968	      3.40468921	      0.28075727	      0.00368718	     -0.29758878	    124.36501080	    126.06720554	     41.47934332	    -20.18369908	      3.04371395	     51.20532619	   -124.36501080	   -126.06720554	    -41.47934332	      4.63406519	     -4.26141176	     -0.88287702	    398.93059049	    187.76004782	    -53.14554912	     25.08707821	     -7.18743134	    162.94530580	   -398.93059049	   -187.76004782	     53.14554912	     -3.59566113	      6.24078538	     -4.96704507	      0.00000000	      0.00000000	      0.00000000	      0.00000000	      0.00000000	      0.00000000	      0.00000000	      0.00000000	      0.00000000	      0.00000000	      0.00000000	      0.00000000	      0.00000000	      0.00000000	      0.00000000	      0.00000000	      0.00000000	      0.00000000	      0.00000000	      0.00000000	      0.00000000	      0.00000000	      0.00000000	      0.00000000	      0.00000000	      0.00000000	      0.00000000	      0.00000000	      0.00000000	      0.00000000	      0.00000000	      0.00000000	      0.00000000	      0.00000000	      0.00000000	      0.00000000	      0.00000000	      0.00000000	      0.00000000	      0.00000000	      0.00000000	      0.00000000	      0.00000000	      0.00000000	      0.00000000	      0.00000000	      0.00000000	      0.00000000	     27.17028018	      9.18121778	    282.32423890	    193.68583497	     12.86436915	     15.17675912	      9.31309813	      1.68525617	      0.00000000	      0.00000000	      0.00000000	      0.00000000	      0.00000001	      0.00000000	     84.26488000	    -70.70660000	      0.00000000
